<?xml version="1.0" encoding="UTF-8"?><svg id="a" xmlns="http://www.w3.org/2000/svg" viewBox="0 0 1895.88 270.94"><defs><style>.b{fill:#cc4848;}.c{fill:#4eb19f;}</style></defs><path class="c" d="M243.76,270.84h0c14.96,0,27.08-12.13,27.08-27.08v-54.17c0-14.96-12.13-27.08-27.08-27.08h-27.08v81.25c0,14.96,12.13,27.08,27.08,27.08Z"/><path class="c" d="M0,189.59v54.17c0,14.96,12.13,27.08,27.08,27.08h0c14.96,0,27.08-12.13,27.08-27.08v-81.25H27.08c-14.96,0-27.08,12.13-27.08,27.08Z"/><path class="c" d="M243.76,0h0c-14.96,0-27.08,12.13-27.08,27.08V108.34h27.08c14.96,0,27.08-12.13,27.08-27.08V27.08c0-14.96-12.13-27.08-27.08-27.08Z"/><path class="c" d="M27.08,0h0C12.13,0,0,12.13,0,27.08v54.17c0,14.96,12.13,27.08,27.08,27.08h27.08V27.08C54.17,12.13,42.04,0,27.08,0Z"/><path class="b" d="M568.76,0h-216.67c-14.96,0-27.08,12.13-27.08,27.08V243.76c0,14.96,12.13,27.08,27.08,27.08h0c14.96,0,27.08-12.13,27.08-27.08v-81.25h189.59c14.96,0,27.08-12.13,27.08-27.08V27.08c0-14.96-12.13-27.08-27.08-27.08Zm-27.08,108.34h-162.5V54.17h162.5v54.17Z"/><path class="b" d="M893.77,0h-216.67c-14.96,0-27.08,12.13-27.08,27.08V243.76c0,14.96,12.13,27.08,27.08,27.08h216.67c14.96,0,27.08-12.13,27.08-27.08h0c0-14.96-12.13-27.08-27.08-27.08h-189.59v-54.17h135.42c14.96,0,27.08-12.13,27.08-27.08h0c0-14.96-12.13-27.08-27.08-27.08h-135.42V54.17h189.59c14.96,0,27.08-12.13,27.08-27.08h0c0-14.96-12.13-27.08-27.08-27.08Z"/><path class="b" d="M1218.78,0h-216.67c-14.96,0-27.08,12.13-27.08,27.08V243.76c0,14.96,12.13,27.08,27.08,27.08h0c14.96,0,27.08-12.13,27.08-27.08V54.17h162.5V243.76c0,14.96,12.13,27.08,27.08,27.08h0c14.96,0,27.08-12.13,27.08-27.08V27.08c0-14.96-12.13-27.08-27.08-27.08Z"/><path class="b" d="M1543.79,0h-216.67c-14.96,0-27.08,12.13-27.08,27.08v108.34c0,14.96,12.13,27.08,27.08,27.08h189.59v54.17h-189.59c-14.96,0-27.08,12.13-27.08,27.08h0c0,14.96,12.13,27.08,27.08,27.08h216.67c14.96,0,27.08-12.13,27.08-27.08v-108.34c0-14.96-12.13-27.08-27.08-27.08h-189.59V54.17h189.59c14.96,0,27.08-12.13,27.08-27.08h0c0-14.96-12.13-27.08-27.08-27.08Z"/><path class="b" d="M1868.79,54.17c14.96,0,27.08-12.13,27.08-27.08h0c0-14.96-12.13-27.08-27.08-27.08h-216.67c-14.96,0-27.08,12.13-27.08,27.08V243.76c0,14.96,12.13,27.08,27.08,27.08h216.67c14.96,0,27.08-12.13,27.08-27.08h0c0-14.96-12.13-27.08-27.08-27.08h-189.59v-54.17h135.42c14.96,0,27.08-12.13,27.08-27.08h0c0-14.96-12.13-27.08-27.08-27.08h-135.42V54.17h189.59Z"/><path class="c" d="M162.61,27.22c0-15.03-12.19-27.22-27.22-27.22h0c-15.03,0-27.22,12.19-27.22,27.22V108.34H54.17v54.17h54.01v81.22c0,15.03,12.19,27.22,27.22,27.22h0c15.03,0,27.22-12.19,27.22-27.22v-81.22h54.06v-54.17h-54.06V27.22Z"/></svg>